<?xml version="1.0" encoding="UTF-8"?>
<svg version="1.1" xmlns="http://www.w3.org/2000/svg" width="500" height="500">
<path d="M0 0 C165 0 330 0 500 0 C500 165 500 330 500 500 C335 500 170 500 0 500 C0 335 0 170 0 0 Z " fill="#FEFEFE" transform="translate(0,0)"/>
<path d="M0 0 C1.98 0 3.96 0 6 0 C8.1171875 2.1875 8.1171875 2.1875 9.875 5 C10.47054687 5.928125 11.06609375 6.85625 11.6796875 7.8125 C12.11539063 8.534375 12.55109375 9.25625 13 10 C13.33 6.7 13.66 3.4 14 0 C15.98 0 17.96 0 20 0 C20 7.26 20 14.52 20 22 C18.02 22 16.04 22 14 22 C12.1015625 20.03125 12.1015625 20.03125 10.625 17.5 C10.12226563 16.6646875 9.61953125 15.829375 9.1015625 14.96875 C8.55628906 13.99421875 8.55628906 13.99421875 8 13 C7.67 15.97 7.34 18.94 7 22 C4.69 22 2.38 22 0 22 C0 14.74 0 7.48 0 0 Z " fill="#8C2428" transform="translate(182,319)"/>
<path d="M0 0 C1.98 0 3.96 0 6 0 C6 7.59 6 15.18 6 23 C2.41125 23.1546875 2.41125 23.1546875 -1.25 23.3125 C-1.99668945 23.35802002 -2.74337891 23.40354004 -3.51269531 23.45043945 C-7.23969402 23.52812703 -8.70407463 23.27799049 -11.44921875 20.69921875 C-13.50190946 17.1263994 -13.65245852 15.05974189 -13 11 C-10.875 8.0625 -10.875 8.0625 -8 6 C-4.79647701 5.62311494 -2.88861709 5.55569145 0 7 C0 4.69 0 2.38 0 0 Z " fill="#8B2226" transform="translate(254,318)"/>
<path d="M0 0 C4.95 0 9.9 0 15 0 C15 1.98 15 3.96 15 6 C12.36 6 9.72 6 7 6 C7 7.32 7 8.64 7 10 C9.31 10 11.62 10 14 10 C14 11.98 14 13.96 14 16 C11.69 16 9.38 16 7 16 C7 17.98 7 19.96 7 22 C4.69 22 2.38 22 0 22 C0 14.74 0 7.48 0 0 Z " fill="#912D31" transform="translate(264,319)"/>
<path d="M0 0 C2.5625 2.3125 2.5625 2.3125 4 5 C4 6.32 4 7.64 4 9 C-1.94 9.495 -1.94 9.495 -8 10 C-4.0526448 10.78947104 -0.95712151 11.09202608 3 11 C1.25 14.875 1.25 14.875 -1 16 C-5.25392777 16.50094516 -8.80486114 16.74696179 -12.5 14.4375 C-14.51855692 11.15734501 -15 8.8522557 -15 5 C-10.95619236 -1.41431556 -7.02113121 -1.83322609 0 0 Z " fill="#912D31" transform="translate(220,325)"/>
<path d="M0 0 C1.98 0 3.96 0 6 0 C6.33 0.99 6.66 1.98 7 3 C7.66 3 8.32 3 9 3 C9.33 2.01 9.66 1.02 10 0 C11.98 0 13.96 0 16 0 C15.690625 0.7425 15.38125 1.485 15.0625 2.25 C14.711875 3.1575 14.36125 4.065 14 5 C13.566875 5.928125 13.566875 5.928125 13.125 6.875 C12.9113688 10.50673042 15.0902009 12.9906196 17 16 C13.625 16.1875 13.625 16.1875 10 16 C9.34 15.01 8.68 14.02 8 13 C7.01 14.485 7.01 14.485 6 16 C2.375 16.1875 2.375 16.1875 -1 16 C-0.319375 14.9275 0.36125 13.855 1.0625 12.75 C2.68378494 9.99132751 2.68378494 9.99132751 2.875 6.875 C2.58625 6.25625 2.2975 5.6375 2 5 C1.649375 4.0925 1.29875 3.185 0.9375 2.25 C0.4734375 1.13625 0.4734375 1.13625 0 0 Z " fill="#8A1F23" transform="translate(302,325)"/>
<path d="M0 0 C1.98 0 3.96 0 6 0 C6 7.59 6 15.18 6 23 C4.02 23 2.04 23 0 23 C0 15.41 0 7.82 0 0 Z " fill="#8A1F23" transform="translate(282,318)"/>
<path d="M0 0 C2.97 0.495 2.97 0.495 6 1 C9.26410357 0.62382706 9.26410357 0.62382706 12 0 C12 1.98 12 3.96 12 6 C10.35 6.66 8.7 7.32 7 8 C6.67 10.97 6.34 13.94 6 17 C4.02 17 2.04 17 0 17 C0 11.39 0 5.78 0 0 Z " fill="#8D272A" transform="translate(227,324)"/>
<path d="M0 0 C1.98 0 3.96 0 6 0 C6 5.61 6 11.22 6 17 C4.02 17 2.04 17 0 17 C0 11.39 0 5.78 0 0 Z " fill="#8B2327" transform="translate(292,324)"/>
<path d="M0 0 C1.67542976 0.28604898 3.34385343 0.61781233 5 1 C5.38218767 2.65614657 5.71395102 4.32457024 6 6 C5 7 5 7 2.5 7.125 C0 7 0 7 -1 6 C-1.125 3.5 -1.125 3.5 -1 1 C-0.67 0.67 -0.34 0.34 0 0 Z " fill="#F8F2F2" transform="translate(248,329)"/>
<path d="M0 0 C1.98 0 3.96 0 6 0 C6.625 1.875 6.625 1.875 7 4 C6.34 4.66 5.68 5.32 5 6 C2.375 5.625 2.375 5.625 0 5 C0 3.35 0 1.7 0 0 Z " fill="#8E272B" transform="translate(292,316)"/>
<path d="M0 0 C4.29 0 8.58 0 13 0 C12.67 0.99 12.34 1.98 12 3 C10.37581255 3.08090971 8.75048255 3.13914995 7.125 3.1875 C5.76761719 3.23970703 5.76761719 3.23970703 4.3828125 3.29296875 C3.20332031 3.14794922 3.20332031 3.14794922 2 3 C1.34 2.01 0.68 1.02 0 0 Z " fill="#E5CFCF" transform="translate(211,334)"/>
</svg>
